# xmcd
#
# Track frame offsets: 
#        150
#        13548
#        27915
#        49971
#        59008
#        77704
#        88524
#        106338
#        114931
#        132124
#        148542
#        170262
#        186152
#        196496
#        203377
#
# Disc length: 2881 seconds
#
# Revision: 0
# Processed by: cddbd v1.5.2PL0 Copyright (c) Steve Scherf et al.
# Submitted via: ExactAudioCopy v0.99pb3
#
DISCID=c30b3f0f
DTITLE=Paul Oscher - Bet On The Blues
DYEAR=2010
DGENRE=Blues
TTITLE0=Wee Baby Blues
TTITLE1=Round Midnight
TTITLE2=Robin Lee
TTITLE3=Slideaway (And Hide Away)
TTITLE4=What Have I Done
TTITLE5=Juke
TTITLE6=Ida Mae
TTITLE7=Bet On The Blues
TTITLE8=Mean Old World
TTITLE9=Jesus, Won't You Come By Here
TTITLE10=Rock Me
TTITLE11=Sad Sad Day
TTITLE12=Blues In The Dark
TTITLE13=Lisa Jane - God's Unchanging Hand
TTITLE14=River Of Jordan
EXTD=
EXTT0=
EXTT1=
EXTT2=
EXTT3=
EXTT4=
EXTT5=
EXTT6=
EXTT7=
EXTT8=
EXTT9=
EXTT10=
EXTT11=
EXTT12=
EXTT13=
EXTT14=
PLAYORDER=
